# xmcd
#
# Track frame offsets: 
#        182
#        21610
#        37080
#        63245
#        76795
#        95805
#        130775
#
# Disc length: 1955 seconds
#
# Revision: 4
# Processed by: cddbd v1.5.2PL0 Copyright (c) Steve Scherf et al.
# Submitted via: ExactAudioCopy v0.99pb3
#
DISCID=5a07a107
DTITLE=Traffic Sound - Traffic Sound   Sony
DYEAR=1970
DGENRE=Psychedelic/Psychedelic Rock
TTITLE0=Tibet's Suzettes
TTITLE1=The Days Have Gone
TTITLE2=Yesterday's Game
TTITLE3=America
TTITLE4=What You Need And What You Want
TTITLE5=Chicama Way
TTITLE6=You Want To Be Sure
EXTD=
EXTT0=
EXTT1=
EXTT2=
EXTT3=
EXTT4=
EXTT5=
EXTT6=
PLAYORDER=
